<svg width="61" height="25" viewBox="0 0 61 25" fill="none" xmlns="http://www.w3.org/2000/svg">
<path d="M19.2173 21.001V25H1.58057V21.001H19.2173ZM18.9609 2.97119L3.85352 25H0.247559V22.0605L15.4746 0.117188H18.9609V2.97119ZM17.2007 0.117188V4.1333H0.264648V0.117188H17.2007Z" fill="#D42027"/>
<path d="M38.4775 21.001V25H25.9507V21.001H38.4775ZM27.6084 0.117188V25H22.4814V0.117188H27.6084Z" fill="#F1D304"/>
<path d="M51.1069 16.1304H44.7666V12.1313H51.1069C52.0868 12.1313 52.8843 11.9718 53.4995 11.6528C54.1147 11.3224 54.5648 10.8667 54.8496 10.2856C55.1344 9.70459 55.2769 9.04948 55.2769 8.32031C55.2769 7.57975 55.1344 6.89046 54.8496 6.25244C54.5648 5.61442 54.1147 5.10173 53.4995 4.71436C52.8843 4.32699 52.0868 4.1333 51.1069 4.1333H46.5439V25H41.417V0.117188H51.1069C53.0552 0.117188 54.7243 0.470378 56.1143 1.17676C57.5156 1.87174 58.5866 2.83447 59.3271 4.06494C60.0677 5.29541 60.438 6.70247 60.438 8.28613C60.438 9.89258 60.0677 11.2826 59.3271 12.4561C58.5866 13.6296 57.5156 14.5353 56.1143 15.1733C54.7243 15.8114 53.0552 16.1304 51.1069 16.1304Z" fill="#2D9A44"/>
</svg>
